<svg width="179" height="114" viewBox="0 0 179 114" fill="none" xmlns="http://www.w3.org/2000/svg">
<g clip-path="url(#clip0_66_6)">
<path d="M67.125 9.4375H61.5312V14.1562H67.125V9.4375Z" fill="#E8705B"/>
<path d="M95.0938 9.4375H89.5V14.1562H95.0938V9.4375Z" fill="#E8705B"/>
<path d="M117.469 9.4375H111.875V14.1562H117.469V9.4375Z" fill="#E8705B"/>
<path d="M61.5312 14.1562H55.9375V18.875H61.5312V14.1562Z" fill="#E8705B"/>
<path d="M67.125 14.1562H61.5312V18.875H67.125V14.1562Z" fill="#FFF671"/>
<path d="M72.7188 14.1562H67.125V18.875H72.7188V14.1562Z" fill="#E8705B"/>
<path d="M89.5 14.1562H83.9062V18.875H89.5V14.1562Z" fill="#E8705B"/>
<path d="M95.0938 14.1562H89.5V18.875H95.0938V14.1562Z" fill="#FFF671"/>
<path d="M100.688 14.1562H95.0938V18.875H100.688V14.1562Z" fill="#E8705B"/>
<path d="M111.875 14.1562H106.281V18.875H111.875V14.1562Z" fill="#E8705B"/>
<path d="M117.469 14.1562H111.875V18.875H117.469V14.1562Z" fill="#FFF671"/>
<path d="M123.062 14.1562H117.469V18.875H123.062V14.1562Z" fill="#E8705B"/>
<path d="M61.5312 18.875H55.9375V23.5938H61.5312V18.875Z" fill="#E8705B"/>
<path d="M67.125 18.875H61.5312V23.5938H67.125V18.875Z" fill="#FFF671"/>
<path d="M72.7188 18.875H67.125V23.5938H72.7188V18.875Z" fill="#FFC110"/>
<path d="M89.5 18.875H83.9062V23.5938H89.5V18.875Z" fill="#E8705B"/>
<path d="M95.0938 18.875H89.5V23.5938H95.0938V18.875Z" fill="#FFF671"/>
<path d="M100.688 18.875H95.0938V23.5938H100.688V18.875Z" fill="#FFC110"/>
<path d="M111.875 18.875H106.281V23.5938H111.875V18.875Z" fill="#E8705B"/>
<path d="M117.469 18.875H111.875V23.5938H117.469V18.875Z" fill="#FFF671"/>
<path d="M123.062 18.875H117.469V23.5938H123.062V18.875Z" fill="#FFC110"/>
<path d="M67.125 23.5938H61.5312V28.3125H67.125V23.5938Z" fill="#FFC110"/>
<path d="M95.0938 23.5938H89.5V28.3125H95.0938V23.5938Z" fill="#FFC110"/>
<path d="M117.469 23.5938H111.875V28.3125H117.469V23.5938Z" fill="#FFC110"/>
<path d="M72.7188 28.3125H55.9375V33.0312H72.7188V28.3125Z" fill="#7CC4F2"/>
<path d="M100.688 28.3125H83.9062V33.0312H100.688V28.3125Z" fill="#7CC4F2"/>
<path d="M123.062 28.3125H106.281V33.0312H123.062V28.3125Z" fill="#7CC4F2"/>
<path d="M61.5312 33.0312H55.9375V37.75H61.5312V33.0312Z" fill="#26B1F3"/>
<path d="M72.7188 33.0312H61.5312V37.75H72.7188V33.0312Z" fill="#7CC4F2"/>
<path d="M89.5 33.0312H83.9062V37.75H89.5V33.0312Z" fill="#26B1F3"/>
<path d="M100.688 33.0312H89.5V37.75H100.688V33.0312Z" fill="#7CC4F2"/>
<path d="M111.875 33.0312H106.281V37.75H111.875V33.0312Z" fill="#26B1F3"/>
<path d="M123.062 33.0312H111.875V37.75H123.062V33.0312Z" fill="#7CC4F2"/>
<path d="M134.25 37.75H44.75V42.4688H134.25V37.75Z" fill="#FF638D"/>
<path d="M67.125 42.4688H39.1562V47.1875H67.125V42.4688Z" fill="#FF638D"/>
<path d="M100.688 42.4688H67.125V47.1875H100.688V42.4688Z" fill="white"/>
<path d="M139.844 42.4688H100.688V47.1875H139.844V42.4688Z" fill="#FF638D"/>
<path d="M61.5312 47.1875H39.1562V51.9062H61.5312V47.1875Z" fill="#FF638D"/>
<path d="M106.281 47.1875H61.5312V51.9062H106.281V47.1875Z" fill="white"/>
<path d="M139.844 47.1875H106.281V51.9062H139.844V47.1875Z" fill="#FF638D"/>
<path d="M61.5312 51.9062H39.1562V56.625H61.5312V51.9062Z" fill="#FF638D"/>
<path d="M106.281 51.9062H61.5312V56.625H106.281V51.9062Z" fill="white"/>
<path d="M134.25 51.9062H106.281V56.625H134.25V51.9062Z" fill="#FF638D"/>
<path d="M139.844 51.9062H134.25V56.625H139.844V51.9062Z" fill="white"/>
<path d="M44.75 56.625H39.1562V61.3438H44.75V56.625Z" fill="white"/>
<path d="M61.5312 56.625H44.75V61.3438H61.5312V56.625Z" fill="#FF638D"/>
<path d="M111.875 56.625H61.5312V61.3438H111.875V56.625Z" fill="white"/>
<path d="M128.656 56.625H111.875V61.3438H128.656V56.625Z" fill="#FF638D"/>
<path d="M139.844 56.625H128.656V61.3438H139.844V56.625Z" fill="white"/>
<path d="M50.3438 61.3438H39.1562V66.0625H50.3438V61.3438Z" fill="white"/>
<path d="M61.5312 61.3438H50.3438V66.0625H61.5312V61.3438Z" fill="#FF638D"/>
<path d="M139.844 61.3438H61.5312V66.0625H139.844V61.3438Z" fill="white"/>
<path d="M50.3438 66.0625H39.1562V70.7812H50.3438V66.0625Z" fill="white"/>
<path d="M61.5312 66.0625H50.3438V70.7812H61.5312V66.0625Z" fill="#FF638D"/>
<path d="M139.844 66.0625H61.5312V70.7812H139.844V66.0625Z" fill="white"/>
<path d="M50.3438 70.7812H39.1562V75.5H50.3438V70.7812Z" fill="white"/>
<path d="M55.9375 70.7812H50.3438V75.5H55.9375V70.7812Z" fill="#FF638D"/>
<path d="M139.844 70.7812H55.9375V75.5H139.844V70.7812Z" fill="white"/>
<path d="M139.844 75.5H39.1562V80.2188H139.844V75.5Z" fill="white"/>
<path d="M139.844 80.2188H39.1562V84.9375H139.844V80.2188Z" fill="white"/>
<path d="M44.75 84.9375H39.1562V89.6562H44.75V84.9375Z" fill="#FF638D"/>
<path d="M50.3438 84.9375H44.75V89.6562H50.3438V84.9375Z" fill="white"/>
<path d="M61.5312 84.9375H50.3438V89.6562H61.5312V84.9375Z" fill="#FF638D"/>
<path d="M72.7188 84.9375H61.5312V89.6562H72.7188V84.9375Z" fill="white"/>
<path d="M100.688 84.9375H72.7188V89.6562H100.688V84.9375Z" fill="#FF638D"/>
<path d="M111.875 84.9375H100.688V89.6562H111.875V84.9375Z" fill="white"/>
<path d="M123.062 84.9375H111.875V89.6562H123.062V84.9375Z" fill="#FF638D"/>
<path d="M134.25 84.9375H123.062V89.6562H134.25V84.9375Z" fill="white"/>
<path d="M139.844 84.9375H134.25V89.6562H139.844V84.9375Z" fill="#FF638D"/>
<path d="M39.1562 89.6562H33.5625V94.375H39.1562V89.6562Z" fill="#FF638D"/>
<path d="M44.75 89.6562H39.1562V94.375H44.75V89.6562Z" fill="white"/>
<path d="M50.3438 89.6562H44.75V94.375H50.3438V89.6562Z" fill="#FF638D"/>
<path d="M61.5312 89.6562H50.3438V94.375H61.5312V89.6562Z" fill="white"/>
<path d="M72.7188 89.6562H61.5312V94.375H72.7188V89.6562Z" fill="#FF638D"/>
<path d="M100.688 89.6562H72.7188V94.375H100.688V89.6562Z" fill="white"/>
<path d="M111.875 89.6562H100.688V94.375H111.875V89.6562Z" fill="#FF638D"/>
<path d="M123.062 89.6562H111.875V94.375H123.062V89.6562Z" fill="white"/>
<path d="M134.25 89.6562H123.062V94.375H134.25V89.6562Z" fill="#FF638D"/>
<path d="M139.844 89.6562H134.25V94.375H139.844V89.6562Z" fill="white"/>
<path d="M145.438 89.6562H139.844V94.375H145.438V89.6562Z" fill="#FF638D"/>
<path d="M145.438 94.375H33.5625V99.0938H145.438V94.375Z" fill="#FF638D"/>
</g>
<defs>
<clipPath id="clip0_66_6">
<rect width="179" height="114" fill="white"/>
</clipPath>
</defs>
</svg>
