<svg width="56" height="56" viewBox="0 0 56 56" fill="none" xmlns="http://www.w3.org/2000/svg">
<path d="M24.5 7H15.75V8.75H24.5V7Z" fill="#F3322C"/>
<path d="M40.25 7H31.5V8.75H40.25V7Z" fill="#F3322C"/>
<path d="M28 8.75H12.25V10.5H28V8.75Z" fill="#F3322C"/>
<path d="M43.75 8.75H29.75V10.5H43.75V8.75Z" fill="#F3322C"/>
<path d="M21 10.5H10.5V12.25H21V10.5Z" fill="#F3322C"/>
<path d="M24.5 10.5H21V12.25H24.5V10.5Z" fill="white"/>
<path d="M35 10.5H24.5V12.25H35V10.5Z" fill="#F3322C"/>
<path d="M38.5 10.5H35V12.25H38.5V10.5Z" fill="white"/>
<path d="M45.5 10.5H38.5V12.25H45.5V10.5Z" fill="#F3322C"/>
<path d="M24.5 12.25H8.75V14H24.5V12.25Z" fill="#F3322C"/>
<path d="M26.25 12.25H24.5V14H26.25V12.25Z" fill="white"/>
<path d="M35 12.25H26.25V14H35V12.25Z" fill="#F3322C"/>
<path d="M38.5 12.25H35V14H38.5V12.25Z" fill="white"/>
<path d="M40.25 12.25H38.5V14H40.25V12.25Z" fill="#F3322C"/>
<path d="M42 12.25H40.25V14H42V12.25Z" fill="white"/>
<path d="M47.25 12.25H42V14H47.25V12.25Z" fill="#F3322C"/>
<path d="M42 14H8.75V15.75H42V14Z" fill="#F3322C"/>
<path d="M43.75 14H42V15.75H43.75V14Z" fill="white"/>
<path d="M47.25 14H43.75V15.75H47.25V14Z" fill="#F3322C"/>
<path d="M42 15.75H7V17.5H42V15.75Z" fill="#F3322C"/>
<path d="M43.75 15.75H42V17.5H43.75V15.75Z" fill="white"/>
<path d="M49 15.75H43.75V17.5H49V15.75Z" fill="#F3322C"/>
<path d="M49 17.5H7V19.25H49V17.5Z" fill="#F3322C"/>
<path d="M49 19.25H7V21H49V19.25Z" fill="#F3322C"/>
<path d="M49 21H7V22.75H49V21Z" fill="#F3322C"/>
<path d="M47.25 22.75H8.75V24.5H47.25V22.75Z" fill="#F3322C"/>
<path d="M47.25 24.5H8.75V26.25H47.25V24.5Z" fill="#F3322C"/>
<path d="M45.5 26.25H10.5V28H45.5V26.25Z" fill="#F3322C"/>
<path d="M45.5 28H10.5V29.75H45.5V28Z" fill="#F3322C"/>
<path d="M43.75 29.75H12.25V31.5H43.75V29.75Z" fill="#F3322C"/>
<path d="M26.25 31.5H14V33.25H26.25V31.5Z" fill="#F3322C"/>
<path d="M29.75 31.5H26.25V33.25H29.75V31.5Z" fill="white"/>
<path d="M31.5 31.5H29.75V33.25H31.5V31.5Z" fill="black"/>
<path d="M42 31.5H31.5V33.25H42V31.5Z" fill="#F3322C"/>
<path d="M40.25 33.25H15.75V35H40.25V33.25Z" fill="#F3322C"/>
<path d="M38.5 35H17.5V36.75H38.5V35Z" fill="#F3322C"/>
<path d="M36.75 36.75H19.25V38.5H36.75V36.75Z" fill="#F3322C"/>
<path d="M33.25 38.5H22.75V40.25H33.25V38.5Z" fill="#F3322C"/>
<path d="M29.75 40.25H26.25V42H29.75V40.25Z" fill="#F3322C"/>
</svg>
