<svg width="60" height="60" viewBox="0 0 60 60" fill="none" xmlns="http://www.w3.org/2000/svg">
<g clip-path="url(#clip0_67_8)">
<path d="M17.51 4H46.67C48.25 6.83 49.93 9.6 51.5 12.43C49.86 15.22 48.22 18 46.66 20.83C49.9133 26.41 53.14 31.9967 56.34 37.59L46.69 54.33H17.5C12.68 45.95 7.84667 37.5833 3 29.23C7.81 20.82 12.71 12.45 17.51 4ZM12.73 29.23C16 34.8 19.17 40.4 22.42 46H41.61L41.87 45.83C43.51 43.14 45.01 40.37 46.62 37.67C45.02 34.8633 43.4033 32.0633 41.77 29.27C40.21 32 38.55 34.78 37 37.59H27.22C24 32 20.76 26.41 17.56 20.82C20.73 20.82 23.91 20.77 27.09 20.82C29.02 23.41 30.35 26.43 32.09 29.16C35.3633 23.5933 38.5833 18.0133 41.75 12.42H22.42C19.19 18 15.93 23.6 12.73 29.23Z" fill="url(#paint0_linear_67_8)"/>
</g>
<defs>
<linearGradient id="paint0_linear_67_8" x1="3" y1="29.17" x2="56.34" y2="29.17" gradientUnits="userSpaceOnUse">
<stop stop-color="#F32871"/>
<stop offset="0.99" stop-color="#BCAE9C"/>
</linearGradient>
<clipPath id="clip0_67_8">
<rect width="53.34" height="50.33" fill="white" transform="translate(3 4)"/>
</clipPath>
</defs>
</svg>
