<svg width="185" height="154" viewBox="0 0 185 154" fill="none" xmlns="http://www.w3.org/2000/svg">
<g clip-path="url(#clip0_66_3)">
<path d="M115.625 28.9062H69.375V34.6875H115.625V28.9062Z" fill="#807F7E"/>
<path d="M69.375 34.6875H52.0312V40.4688H69.375V34.6875Z" fill="#807F7E"/>
<path d="M115.625 34.6875H69.375V40.4688H115.625V34.6875Z" fill="#3F90CF"/>
<path d="M132.969 34.6875H115.625V40.4688H132.969V34.6875Z" fill="#807F7E"/>
<path d="M52.0312 40.4688H40.4688V46.25H52.0312V40.4688Z" fill="#807F7E"/>
<path d="M132.969 40.4688H52.0312V46.25H132.969V40.4688Z" fill="#3F90CF"/>
<path d="M144.531 40.4688H132.969V46.25H144.531V40.4688Z" fill="#807F7E"/>
<path d="M40.4688 46.25H34.6875V52.0312H40.4688V46.25Z" fill="#807F7E"/>
<path d="M144.531 46.25H40.4688V52.0312H144.531V46.25Z" fill="#3F90CF"/>
<path d="M150.312 46.25H144.531V52.0312H150.312V46.25Z" fill="#807F7E"/>
<path d="M34.6875 52.0312H28.9062V57.8125H34.6875V52.0312Z" fill="#807F7E"/>
<path d="M150.312 52.0312H34.6875V57.8125H150.312V52.0312Z" fill="#3F90CF"/>
<path d="M156.094 52.0312H150.312V57.8125H156.094V52.0312Z" fill="#807F7E"/>
<path d="M34.6875 57.8125H28.9062V63.5938H34.6875V57.8125Z" fill="#807F7E"/>
<path d="M150.312 57.8125H34.6875V63.5938H150.312V57.8125Z" fill="#3F90CF"/>
<path d="M156.094 57.8125H150.312V63.5938H156.094V57.8125Z" fill="#807F7E"/>
<path d="M34.6875 63.5938H28.9062V69.375H34.6875V63.5938Z" fill="#807F7E"/>
<path d="M150.312 63.5938H34.6875V69.375H150.312V63.5938Z" fill="#3F90CF"/>
<path d="M156.094 63.5938H150.312V69.375H156.094V63.5938Z" fill="#807F7E"/>
<path d="M34.6875 69.375H28.9062V75.1562H34.6875V69.375Z" fill="#343235"/>
<path d="M40.4688 69.375H34.6875V75.1562H40.4688V69.375Z" fill="#807F7E"/>
<path d="M144.531 69.375H40.4688V75.1562H144.531V69.375Z" fill="#3F90CF"/>
<path d="M150.312 69.375H144.531V75.1562H150.312V69.375Z" fill="#807F7E"/>
<path d="M156.094 69.375H150.312V75.1562H156.094V69.375Z" fill="#3F90CF"/>
<path d="M40.4688 75.1562H28.9062V80.9375H40.4688V75.1562Z" fill="#343235"/>
<path d="M52.0312 75.1562H40.4688V80.9375H52.0312V75.1562Z" fill="#807F7E"/>
<path d="M132.969 75.1562H52.0312V80.9375H132.969V75.1562Z" fill="#3F90CF"/>
<path d="M144.531 75.1562H132.969V80.9375H144.531V75.1562Z" fill="#807F7E"/>
<path d="M150.312 75.1562H144.531V80.9375H150.312V75.1562Z" fill="#4B4949"/>
<path d="M156.094 75.1562H150.312V80.9375H156.094V75.1562Z" fill="#3F90CF"/>
<path d="M52.0312 80.9375H28.9062V86.7188H52.0312V80.9375Z" fill="#343235"/>
<path d="M69.375 80.9375H52.0312V86.7188H69.375V80.9375Z" fill="#807F7E"/>
<path d="M115.625 80.9375H69.375V86.7188H115.625V80.9375Z" fill="#3F90CF"/>
<path d="M132.969 80.9375H115.625V86.7188H132.969V80.9375Z" fill="#807F7E"/>
<path d="M144.531 80.9375H132.969V86.7188H144.531V80.9375Z" fill="#4B4949"/>
<path d="M156.094 80.9375H144.531V86.7188H156.094V80.9375Z" fill="#3F90CF"/>
<path d="M69.375 86.7188H28.9062V92.5H69.375V86.7188Z" fill="#343235"/>
<path d="M115.625 86.7188H69.375V92.5H115.625V86.7188Z" fill="#807F7E"/>
<path d="M150.312 86.7188H115.625V92.5H150.312V86.7188Z" fill="#4B4949"/>
<path d="M156.094 86.7188H150.312V92.5H156.094V86.7188Z" fill="#3F90CF"/>
<path d="M52.0312 92.5H28.9062V98.2812H52.0312V92.5Z" fill="#343235"/>
<path d="M69.375 92.5H52.0312V98.2812H69.375V92.5Z" fill="#4B4949"/>
<path d="M80.9375 92.5H69.375V98.2812H80.9375V92.5Z" fill="#343235"/>
<path d="M86.7188 92.5H80.9375V98.2812H86.7188V92.5Z" fill="#4B4949"/>
<path d="M92.5 92.5H86.7188V98.2812H92.5V92.5Z" fill="#343235"/>
<path d="M144.531 92.5H92.5V98.2812H144.531V92.5Z" fill="#4B4949"/>
<path d="M156.094 92.5H144.531V98.2812H156.094V92.5Z" fill="#3F90CF"/>
<path d="M69.375 98.2812H28.9062V104.062H69.375V98.2812Z" fill="#343235"/>
<path d="M150.312 98.2812H69.375V104.062H150.312V98.2812Z" fill="#4B4949"/>
<path d="M156.094 98.2812H150.312V104.062H156.094V98.2812Z" fill="#3F90CF"/>
<path d="M52.0312 104.062H34.6875V109.844H52.0312V104.062Z" fill="#343235"/>
<path d="M69.375 104.062H52.0312V109.844H69.375V104.062Z" fill="#4B4949"/>
<path d="M80.9375 104.062H69.375V109.844H80.9375V104.062Z" fill="#343235"/>
<path d="M144.531 104.062H80.9375V109.844H144.531V104.062Z" fill="#4B4949"/>
<path d="M150.312 104.062H144.531V109.844H150.312V104.062Z" fill="#3F90CF"/>
<path d="M69.375 109.844H40.4688V115.625H69.375V109.844Z" fill="#343235"/>
<path d="M86.7188 109.844H69.375V115.625H86.7188V109.844Z" fill="#4B4949"/>
<path d="M92.5 109.844H86.7188V115.625H92.5V109.844Z" fill="#807F7E"/>
<path d="M98.2812 109.844H92.5V115.625H98.2812V109.844Z" fill="#343235"/>
<path d="M109.844 109.844H98.2812V115.625H109.844V109.844Z" fill="#807F7E"/>
<path d="M115.625 109.844H109.844V115.625H115.625V109.844Z" fill="#343235"/>
<path d="M144.531 109.844H115.625V115.625H144.531V109.844Z" fill="#4B4949"/>
<path d="M69.375 115.625H52.0312V121.406H69.375V115.625Z" fill="#4B4949"/>
<path d="M80.9375 115.625H69.375V121.406H80.9375V115.625Z" fill="#343235"/>
<path d="M132.969 115.625H80.9375V121.406H132.969V115.625Z" fill="#4B4949"/>
<path d="M115.625 121.406H69.375V127.188H115.625V121.406Z" fill="#4B4949"/>
</g>
<defs>
<clipPath id="clip0_66_3">
<rect width="185" height="154" fill="white"/>
</clipPath>
</defs>
</svg>
