<svg width="137" height="106" viewBox="0 0 137 106" fill="none" xmlns="http://www.w3.org/2000/svg">
<g clip-path="url(#clip0_66_4)">
<path d="M72.7812 7.875H64.2188V11.8125H72.7812V7.875Z" fill="#D4A015"/>
<path d="M51.375 11.8125H47.0938V15.75H51.375V11.8125Z" fill="#FFF671"/>
<path d="M64.2188 11.8125H59.9375V15.75H64.2188V11.8125Z" fill="#D4A015"/>
<path d="M72.7812 11.8125H64.2188V15.75H72.7812V11.8125Z" fill="#FFF671"/>
<path d="M77.0625 11.8125H72.7812V15.75H77.0625V11.8125Z" fill="#D4A015"/>
<path d="M64.2188 15.75H59.9375V19.6875H64.2188V15.75Z" fill="#D4A015"/>
<path d="M72.7812 15.75H64.2188V19.6875H72.7812V15.75Z" fill="#FFF671"/>
<path d="M77.0625 15.75H72.7812V19.6875H77.0625V15.75Z" fill="#D4A015"/>
<path d="M59.9375 19.6875H55.6562V23.625H59.9375V19.6875Z" fill="#D4A015"/>
<path d="M77.0625 19.6875H59.9375V23.625H77.0625V19.6875Z" fill="#FFF671"/>
<path d="M81.3438 19.6875H77.0625V23.625H81.3438V19.6875Z" fill="#D4A015"/>
<path d="M98.4688 19.6875H94.1875V23.625H98.4688V19.6875Z" fill="#FFF671"/>
<path d="M107.031 19.6875H102.75V23.625H107.031V19.6875Z" fill="#FFF671"/>
<path d="M38.5312 23.625H34.25V27.5625H38.5312V23.625Z" fill="#FFF671"/>
<path d="M59.9375 23.625H55.6562V27.5625H59.9375V23.625Z" fill="#D4A015"/>
<path d="M77.0625 23.625H59.9375V27.5625H77.0625V23.625Z" fill="#FFF671"/>
<path d="M81.3438 23.625H77.0625V27.5625H81.3438V23.625Z" fill="#D4A015"/>
<path d="M102.75 23.625H98.4688V27.5625H102.75V23.625Z" fill="#FFF671"/>
<path d="M42.8125 27.5625H29.9688V31.5H42.8125V27.5625Z" fill="#FFF671"/>
<path d="M55.6562 27.5625H51.375V31.5H55.6562V27.5625Z" fill="#D4A015"/>
<path d="M81.3438 27.5625H55.6562V31.5H81.3438V27.5625Z" fill="#FFF671"/>
<path d="M85.625 27.5625H81.3438V31.5H85.625V27.5625Z" fill="#D4A015"/>
<path d="M98.4688 27.5625H94.1875V31.5H98.4688V27.5625Z" fill="#FFF671"/>
<path d="M107.031 27.5625H102.75V31.5H107.031V27.5625Z" fill="#FFF671"/>
<path d="M38.5312 31.5H34.25V35.4375H38.5312V31.5Z" fill="#FFF671"/>
<path d="M55.6562 31.5H51.375V35.4375H55.6562V31.5Z" fill="#D4A015"/>
<path d="M81.3438 31.5H55.6562V35.4375H81.3438V31.5Z" fill="#FFF671"/>
<path d="M85.625 31.5H81.3438V35.4375H85.625V31.5Z" fill="#D4A015"/>
<path d="M51.375 35.4375H42.8125V39.375H51.375V35.4375Z" fill="#D4A015"/>
<path d="M85.625 35.4375H51.375V39.375H85.625V35.4375Z" fill="#FFF671"/>
<path d="M94.1875 35.4375H85.625V39.375H94.1875V35.4375Z" fill="#D4A015"/>
<path d="M42.8125 39.375H34.25V43.3125H42.8125V39.375Z" fill="#D4A015"/>
<path d="M94.1875 39.375H42.8125V43.3125H94.1875V39.375Z" fill="#FFF671"/>
<path d="M102.75 39.375H94.1875V43.3125H102.75V39.375Z" fill="#D4A015"/>
<path d="M34.25 43.3125H25.6875V47.25H34.25V43.3125Z" fill="#D4A015"/>
<path d="M102.75 43.3125H34.25V47.25H102.75V43.3125Z" fill="#FFF671"/>
<path d="M111.312 43.3125H102.75V47.25H111.312V43.3125Z" fill="#D4A015"/>
<path d="M25.6875 47.25H21.4062V51.1875H25.6875V47.25Z" fill="#D4A015"/>
<path d="M111.312 47.25H25.6875V51.1875H111.312V47.25Z" fill="#FFF671"/>
<path d="M115.594 47.25H111.312V51.1875H115.594V47.25Z" fill="#D4A015"/>
<path d="M25.6875 51.1875H21.4062V55.125H25.6875V51.1875Z" fill="#D4A015"/>
<path d="M111.312 51.1875H25.6875V55.125H111.312V51.1875Z" fill="#FFF671"/>
<path d="M115.594 51.1875H111.312V55.125H115.594V51.1875Z" fill="#D4A015"/>
<path d="M34.25 55.125H25.6875V59.0625H34.25V55.125Z" fill="#D4A015"/>
<path d="M102.75 55.125H34.25V59.0625H102.75V55.125Z" fill="#FFF671"/>
<path d="M111.312 55.125H102.75V59.0625H111.312V55.125Z" fill="#D4A015"/>
<path d="M42.8125 59.0625H34.25V63H42.8125V59.0625Z" fill="#D4A015"/>
<path d="M94.1875 59.0625H42.8125V63H94.1875V59.0625Z" fill="#FFF671"/>
<path d="M102.75 59.0625H94.1875V63H102.75V59.0625Z" fill="#D4A015"/>
<path d="M47.0938 63H42.8125V66.9375H47.0938V63Z" fill="#D4A015"/>
<path d="M89.9062 63H47.0938V66.9375H89.9062V63Z" fill="#FFF671"/>
<path d="M94.1875 63H89.9062V66.9375H94.1875V63Z" fill="#D4A015"/>
<path d="M47.0938 66.9375H42.8125V70.875H47.0938V66.9375Z" fill="#D4A015"/>
<path d="M89.9062 66.9375H47.0938V70.875H89.9062V66.9375Z" fill="#FFF671"/>
<path d="M94.1875 66.9375H89.9062V70.875H94.1875V66.9375Z" fill="#D4A015"/>
<path d="M29.9688 70.875H25.6875V74.8125H29.9688V70.875Z" fill="#FFF671"/>
<path d="M42.8125 70.875H38.5312V74.8125H42.8125V70.875Z" fill="#D4A015"/>
<path d="M72.7812 70.875H42.8125V74.8125H72.7812V70.875Z" fill="#FFF671"/>
<path d="M85.625 70.875H72.7812V74.8125H85.625V70.875Z" fill="#D4A015"/>
<path d="M94.1875 70.875H85.625V74.8125H94.1875V70.875Z" fill="#FFF671"/>
<path d="M98.4688 70.875H94.1875V74.8125H98.4688V70.875Z" fill="#D4A015"/>
<path d="M42.8125 74.8125H38.5312V78.75H42.8125V74.8125Z" fill="#D4A015"/>
<path d="M94.1875 74.8125H42.8125V78.75H94.1875V74.8125Z" fill="#FFF671"/>
<path d="M98.4688 74.8125H94.1875V78.75H98.4688V74.8125Z" fill="#D4A015"/>
<path d="M38.5312 78.75H34.25V82.6875H38.5312V78.75Z" fill="#D4A015"/>
<path d="M64.2188 78.75H38.5312V82.6875H64.2188V78.75Z" fill="#FFF671"/>
<path d="M72.7812 78.75H64.2188V82.6875H72.7812V78.75Z" fill="#D4A015"/>
<path d="M98.4688 78.75H72.7812V82.6875H98.4688V78.75Z" fill="#FFF671"/>
<path d="M102.75 78.75H98.4688V82.6875H102.75V78.75Z" fill="#D4A015"/>
<path d="M38.5312 82.6875H34.25V86.625H38.5312V82.6875Z" fill="#D4A015"/>
<path d="M55.6562 82.6875H38.5312V86.625H55.6562V82.6875Z" fill="#FFF671"/>
<path d="M64.2188 82.6875H55.6562V86.625H64.2188V82.6875Z" fill="#D4A015"/>
<path d="M81.3438 82.6875H72.7812V86.625H81.3438V82.6875Z" fill="#D4A015"/>
<path d="M98.4688 82.6875H81.3438V86.625H98.4688V82.6875Z" fill="#FFF671"/>
<path d="M102.75 82.6875H98.4688V86.625H102.75V82.6875Z" fill="#D4A015"/>
<path d="M38.5312 86.625H34.25V90.5625H38.5312V86.625Z" fill="#D4A015"/>
<path d="M47.0938 86.625H38.5312V90.5625H47.0938V86.625Z" fill="#FFF671"/>
<path d="M55.6562 86.625H47.0938V90.5625H55.6562V86.625Z" fill="#D4A015"/>
<path d="M89.9062 86.625H81.3438V90.5625H89.9062V86.625Z" fill="#D4A015"/>
<path d="M98.4688 86.625H89.9062V90.5625H98.4688V86.625Z" fill="#FFF671"/>
<path d="M102.75 86.625H98.4688V90.5625H102.75V86.625Z" fill="#D4A015"/>
<path d="M47.0938 90.5625H38.5312V94.5H47.0938V90.5625Z" fill="#D4A015"/>
<path d="M98.4688 90.5625H89.9062V94.5H98.4688V90.5625Z" fill="#D4A015"/>
</g>
<defs>
<clipPath id="clip0_66_4">
<rect width="137" height="106" fill="white"/>
</clipPath>
</defs>
</svg>
